<svg width="24" height="36" viewBox="0 0 24 36" fill="none" xmlns="http://www.w3.org/2000/svg">
<path d="M12.3088 36C3.44166 22.2213 -0.660881 15.8916 1.61812 17.004L23 17.004C22.2002 20.6418 18.1991 26.6615 12.3088 36Z" fill="#10446D"/>
<path fill-rule="evenodd" clip-rule="evenodd" d="M12 25C18.6274 25 24 19.4036 24 12.5C24 5.59644 18.6274 0 12 0C5.37258 0 0 5.59644 0 12.5C0 19.4036 5.37258 25 12 25ZM12 17C14.7614 17 17 14.7614 17 12C17 9.23858 14.7614 7 12 7C9.23858 7 7 9.23858 7 12C7 14.7614 9.23858 17 12 17Z" fill="#10446D"/>
</svg>
