<svg width="49" height="27" viewBox="0 0 49 27" fill="none" xmlns="http://www.w3.org/2000/svg">
<path fill-rule="evenodd" clip-rule="evenodd" d="M0.35 0.650024H0V1.00002V26V26.35H0.35H48.35H48.7V26V1.00002V0.650024H48.35H0.35ZM0.7 25.65V1.35002H48V25.65H0.7ZM4.85 2.15002H4.603L4.52024 2.38274C4.4578 2.5583 4.40421 2.71648 4.35446 2.86332C4.28837 3.05839 4.22907 3.23345 4.1648 3.40266C4.05608 3.68891 3.95215 3.90324 3.82337 4.07024C3.58903 4.37415 3.21864 4.59096 2.32657 4.65081L2 4.67272V5.00002V21.5V21.7722L2.26383 21.8393C3.24273 22.0879 3.81482 22.3262 4.14024 22.6822C4.44465 23.0152 4.58761 23.518 4.50143 24.4684L4.46683 24.85H4.85H43.85H44.1145L44.1867 24.5955C44.4382 23.7089 44.7189 23.1643 45.118 22.773C45.5195 22.3792 46.0758 22.1058 46.9534 21.8344L47.2 21.7581V21.5V5.00002V4.6306L46.8311 4.65053C45.9666 4.69725 45.4636 4.58167 45.1075 4.28696C44.7386 3.9816 44.4565 3.42775 44.1884 2.41081L44.1197 2.15002H43.85H4.85ZM5.02474 3.06664L5.0248 3.06648C5.04899 2.99524 5.07357 2.92288 5.09859 2.85002H43.5833C43.8427 3.75244 44.1585 4.41016 44.6612 4.8262C45.1463 5.2278 45.7531 5.36282 46.5 5.36058V21.2446C45.7094 21.5074 45.1013 21.8089 44.6279 22.2732C44.1525 22.7394 43.8414 23.3413 43.589 24.15H5.22291C5.2512 23.3195 5.09483 22.689 4.65692 22.2099C4.21974 21.7316 3.54717 21.4606 2.7 21.2301V5.31867C3.50331 5.2199 4.01799 4.96419 4.37771 4.49769C4.56923 4.24931 4.70218 3.95927 4.81919 3.6512C4.88566 3.47618 4.95355 3.27628 5.02469 3.0668L5.02471 3.06674L5.02474 3.06664ZM34.35 13.5C34.35 18.7467 30.0967 23 24.85 23C19.6033 23 15.35 18.7467 15.35 13.5C15.35 8.25332 19.6033 4.00002 24.85 4.00002C30.0967 4.00002 34.35 8.25332 34.35 13.5ZM33.4452 13.5C33.4452 18.247 29.597 22.0953 24.85 22.0953C20.103 22.0953 16.2548 18.247 16.2548 13.5C16.2548 8.75301 20.103 4.90479 24.85 4.90479C29.597 4.90479 33.4452 8.75301 33.4452 13.5ZM39.35 16C41.0069 16 42.35 14.6569 42.35 13C42.35 11.3432 41.0069 10 39.35 10C37.6931 10 36.35 11.3432 36.35 13C36.35 14.6569 37.6931 16 39.35 16ZM39.35 15.1429C40.5335 15.1429 41.4929 14.1835 41.4929 13C41.4929 11.8166 40.5335 10.8572 39.35 10.8572C38.1665 10.8572 37.2071 11.8166 37.2071 13C37.2071 14.1835 38.1665 15.1429 39.35 15.1429ZM13.35 13C13.35 14.6569 12.0069 16 10.35 16C8.69315 16 7.35 14.6569 7.35 13C7.35 11.3432 8.69315 10 10.35 10C12.0069 10 13.35 11.3432 13.35 13ZM12.4929 13C12.4929 14.1835 11.5335 15.1429 10.35 15.1429C9.16653 15.1429 8.20714 14.1835 8.20714 13C8.20714 11.8166 9.16653 10.8572 10.35 10.8572C11.5335 10.8572 12.4929 11.8166 12.4929 13Z" fill="#42A5F5"/>
</svg>
