<svg width="29" height="29" viewBox="0 0 29 29" fill="none" xmlns="http://www.w3.org/2000/svg">
<circle cx="14.5" cy="14.5" r="14.5" fill="#10446D"/>
<ellipse cx="14.5847" cy="14.5001" rx="12.8889" ry="12.9556" fill="white"/>
<path d="M14.1694 18.2797L9.4995 15.643C9.35408 15.5684 9.17897 15.6215 8.82541 15.758C8.58358 15.8894 8.43365 15.9442 7.92752 15.7289L4.9453 13.9104C4.86357 13.7711 4.91531 13.7341 5.06725 13.6932L6.9891 14.5137C7.26693 14.5255 7.24635 14.4503 7.12267 14.2759L5.36342 13.1657C5.28739 13.016 5.33123 12.9775 5.48537 12.9485L7.3898 13.8001C7.64874 13.8017 7.67263 13.7315 7.5524 13.5105L5.77573 12.4314C5.70736 12.2726 5.75433 12.2379 5.89768 12.2142L9.09476 13.6501C9.39711 13.8681 9.55014 13.9981 9.63261 14.3204C9.65867 14.7172 9.69407 14.8964 9.86535 14.9914L14.6862 17.3593C15.0035 17.9683 14.9357 18.1916 14.1694 18.2797Z" fill="#10446D" stroke="#10446D" stroke-width="0.2"/>
<path d="M14.9377 18.0984C14.3028 18.1815 13.8137 18.4415 13.9738 17.2507L18.328 13.0664C18.3307 12.9474 18.2699 12.8163 18.1406 12.561C17.975 12.1189 18.0085 11.9501 18.1977 11.7297C20.3959 9.62414 21.5219 8.69518 22.9227 8.47257C23.6429 8.47561 23.413 8.65556 23.3763 8.87148L14.9377 18.0984Z" fill="#10446D" stroke="#10446D" stroke-width="0.2"/>
<ellipse cx="14.3214" cy="17.7258" rx="0.81257" ry="0.785336" fill="#10446D"/>
</svg>
